PathFileType	4	(X/Y/Z)	c:/Users/goper/Files/vsCode/490R/osim_files/A04/A04_Fast_03.trc
DataRate	CameraRate	NumFrames	NumMarkers	Units                	OrigDataRate	OrigDataStartFrame	OrigNumFrames
120.00	120.00	9	36	mm	120.0	1101	1467
                Frame#	Time	LPSIS			LASIS			LTH1			LTH2			LTH3			LTH4			LLFE			LMFE			LSH1			LSH2			LSH3			LSH4			LLMAL			LMMAL			LCAL			LMTP5			LTOE			LMTP1			RPSIS			RASIS			RTH1			RTH2			RTH3			RTH4			RLFE			RMFE			RSH1			RSH2			RSH3			RSH4			RLMAL			RMMAL			RCAL			RMTP1			RTOE			RMTP5		
		X1	Y1	Z1	X2	Y2	Z2	X3	Y3	Z3	X4	Y4	Z4	X5	Y5	Z5	X6	Y6	Z6	X7	Y7	Z7	X8	Y8	Z8	X9	Y9	Z9	X10	Y10	Z10	X11	Y11	Z11	X12	Y12	Z12	X13	Y13	Z13	X14	Y14	Z14	X15	Y15	Z15	X16	Y16	Z16	X17	Y17	Z17	X18	Y18	Z18	X19	Y19	Z19	X20	Y20	Z20	X21	Y21	Z21	X22	Y22	Z22	X23	Y23	Z23	X24	Y24	Z24	X25	Y25	Z25	X26	Y26	Z26	X27	Y27	Z27	X28	Y28	Z28	X29	Y29	Z29	X30	Y30	Z30	X31	Y31	Z31	X32	Y32	Z32	X33	Y33	Z33	X34	Y34	Z34	X35	Y35	Z35	X36	Y36	Z36

1101	9.16667	-2761.73804	1079.94702	319.46326	-2982.63330	1041.52881	405.66400	0.00000	0.00000	0.00000	-3075.87354	711.46228	450.15781	-3007.63965	729.71753	449.64377	-3025.06055	692.86597	451.25085	-3089.56396	558.44275	448.35992	-3112.33057	556.47729	309.42764	-3004.47485	493.14755	443.70853	-2985.04053	452.43326	438.79431	-3056.38696	461.05807	433.13980	-3029.63916	426.80289	428.55338	-2810.16919	236.16621	379.66714	-2833.57300	225.38660	295.91849	-2741.25854	246.95334	317.96625	-2878.58105	103.16779	417.93378	-2929.76099	84.98384	361.20822	-2912.62012	86.27937	315.48828	-2760.57080	1069.07629	213.37424	-2984.45337	1037.94409	119.51320	-2874.68604	732.90833	93.62072	-2882.02686	691.13043	94.60652	-2934.25952	737.69128	80.96146	-2936.79663	690.06049	86.86661	-2936.38940	555.92181	115.84182	-2953.94897	552.29926	230.76770	-2861.54028	348.99747	127.77531	-2864.51611	301.36133	135.71292	-2923.60620	342.66153	119.82757	-2914.68970	295.39780	124.65028	-2870.72363	106.61923	132.73276	0.00000	0.00000	0.00000	-2806.90210	65.87090	214.56673	-3033.76318	62.60228	238.03636	-3054.10742	84.18096	189.92079	-3017.03882	56.62840	119.06514
1102	9.17500	-2772.19775	1080.10376	319.55377	-2992.14844	1042.25403	404.98709	0.00000	0.00000	0.00000	-3088.92822	714.41785	449.15799	-3020.56665	731.86932	448.77972	-3038.53760	694.92505	450.53134	-3103.31226	561.19958	446.79089	-3126.84155	560.45410	308.29135	-3022.78271	493.25131	442.95062	-3005.28125	452.10147	438.16040	-3075.96582	463.30304	432.19724	-3050.49609	428.03070	427.69760	-2838.53394	228.68230	379.48001	-2859.34546	218.58423	294.70560	-2769.10449	236.88208	317.97574	-2912.63379	98.64495	417.67648	-2964.14966	82.43978	360.66412	-2944.11523	81.72262	314.15070	-2769.89209	1069.57129	213.45129	-2994.12378	1038.11658	119.10281	-2879.07397	733.97095	93.78302	-2885.68994	692.00195	94.71057	-2939.11206	737.77905	81.08549	-2940.78540	690.10956	87.00853	-2938.57690	555.83337	116.15734	-2956.13550	552.40729	230.37573	-2863.27759	349.13831	128.12372	-2865.45044	301.29575	136.20535	-2924.60962	342.66870	120.15137	-2915.53247	295.50861	124.92697	-2870.97095	106.93523	132.86388	0.00000	0.00000	0.00000	-2806.26245	66.37166	214.51068	-3033.85303	62.40488	238.11490	-3054.19360	83.97741	189.96378	-3017.00903	56.54753	119.07157
1103	9.18333	-2782.10693	1080.39014	319.72476	-3001.75366	1042.63904	404.37167	0.00000	0.00000	0.00000	-3101.54175	717.18103	448.70648	-3031.91943	733.75085	448.65833	-3051.57373	696.76306	449.80533	-3118.23560	564.28943	445.75589	-3140.93530	564.02557	307.12451	-3040.79395	493.01022	442.17032	-3024.66333	451.17014	437.34775	-3095.36133	465.34238	431.61176	-3071.15820	428.90485	426.86475	-2867.38159	220.93324	379.33047	-2891.71582	212.38116	295.60196	-2797.43115	226.31470	317.95990	-2946.53369	93.96152	417.25348	-2998.88184	80.05452	360.15985	-2979.06812	78.90984	314.11203	-2780.33936	1069.61829	213.72430	-3004.20239	1038.39258	118.69233	-2884.17017	734.63446	93.82493	-2890.76904	692.66370	94.98488	-2944.15356	737.80920	81.14698	-2942.22656	689.25739	86.89944	-2940.91309	555.71942	116.43597	-2958.68994	552.10077	230.62158	-2864.37109	349.33868	128.42020	-2866.43164	301.50491	136.51927	-2925.58862	342.71420	120.37337	-2916.51367	295.63824	125.17931	-2871.16113	107.15655	132.95148	0.00000	0.00000	0.00000	-2806.34961	66.60805	214.55566	-3033.91309	62.17041	238.16060	-3054.32715	83.78806	190.00806	-3017.11914	56.52906	119.11721
1104	9.19167	-2791.68140	1080.36365	319.87567	-3011.37646	1042.75146	403.74539	-3099.64966	761.03082	446.30063	-3113.96680	719.20251	447.70401	0.00000	0.00000	0.00000	-3064.36743	698.10577	449.15182	-3132.75293	567.01233	444.73929	-3152.65698	567.14044	306.15710	-3058.50635	492.37088	441.44608	-3044.10742	450.17758	436.49609	-3114.14624	467.01031	430.72141	-3091.52441	429.66275	426.02600	-2896.65625	213.11293	379.06381	-2921.23218	205.66096	295.31567	-2826.25952	215.53119	317.97623	-2981.29199	89.66582	416.87836	-3031.93652	77.18655	359.31314	-3016.01465	76.67004	313.85184	-2788.94678	1069.67102	213.77060	-3017.22925	1039.54089	119.12209	-2890.30786	735.17072	93.84058	-2895.63916	693.27228	94.92039	-2949.47217	737.72327	81.19113	-2947.77686	690.31195	86.81216	-2945.05981	555.44513	117.13166	0.00000	0.00000	0.00000	-2865.78125	349.43842	128.76694	-2867.59033	301.54843	136.84270	-2926.59497	342.73090	120.56062	-2917.50342	295.73138	125.37161	-2871.42041	107.36617	133.07587	0.00000	0.00000	0.00000	-2807.52905	66.41321	214.78749	-3034.00244	61.94448	238.18376	-3054.43042	83.59815	190.04706	-3015.55200	56.01765	119.83059
1105	9.20000	-2799.90503	1080.42371	319.87686	-3021.07300	1042.49292	403.12442	-3112.72974	763.02020	445.81635	-3126.23755	720.83478	446.65356	0.00000	0.00000	0.00000	-3076.77905	698.98688	448.44229	-3146.75342	569.31348	443.68307	-3165.56543	569.79303	304.98770	-3075.83765	491.28464	440.64948	-3063.27051	448.90475	435.59830	-3132.55005	468.54062	429.73172	-3111.52344	430.16565	425.11502	-2926.34644	205.17570	378.81302	-2950.84448	198.73270	295.03189	-2856.83838	204.09094	317.74417	-3016.58472	85.65123	416.52771	-3067.38721	75.34593	358.81952	-3051.21533	73.84014	313.25876	-2798.65503	1069.22998	214.12537	-3026.82812	1039.18567	118.60176	-2894.87891	735.94049	93.56585	-2901.95312	693.37384	95.04537	-2955.05566	737.52295	81.29725	-2952.73486	690.16345	86.92442	-2945.90088	555.34570	116.90811	-2964.29517	551.17792	231.41515	-2867.19946	349.61624	128.99632	-2868.78809	301.76138	137.10864	-2927.90576	342.68192	120.79192	-2918.55762	295.77621	125.52057	-2871.71118	107.54469	133.17711	0.00000	0.00000	0.00000	-2808.44238	66.28043	214.92732	-3034.10303	61.70933	238.21231	-3053.50342	82.91763	189.68666	-3017.45581	55.77842	120.10661
1106	9.20833	-2810.98022	1079.56433	320.41141	-3030.83008	1041.94934	402.60135	-3123.77710	763.95526	444.83456	-3137.95020	721.88422	445.48163	0.00000	0.00000	0.00000	-3088.85938	699.52936	447.71893	-3159.92188	571.13940	442.54483	-3177.87720	572.15143	303.76434	-3092.93945	489.88644	439.83838	-3081.20703	447.52869	434.41513	-3150.65308	469.71957	428.82870	-3131.30542	430.48700	424.25781	-2956.49219	197.12901	378.65134	-2981.18140	191.96140	294.82831	-2884.67261	193.86044	317.73196	-3051.85254	81.39153	416.35596	-3103.13940	73.92138	358.36011	-3086.96729	71.56756	312.81833	-2807.95679	1068.74341	214.17078	0.00000	0.00000	0.00000	-2900.78955	736.41919	93.26046	-2905.05688	694.38824	94.56570	-2960.80127	737.22968	81.38136	-2960.29370	689.80804	87.67120	-2948.56885	555.03674	117.05317	-2967.03784	550.82153	231.24425	-2867.55493	350.10056	129.29568	-2869.96216	301.88593	137.26929	-2929.09668	342.76657	120.94131	-2919.65356	295.74518	125.65352	-2872.03369	107.74407	133.27469	0.00000	0.00000	0.00000	-2808.59570	66.46191	214.97839	-3033.44116	61.25839	237.91156	-3054.79468	83.23008	190.14960	-3017.54980	55.67764	120.10596
1107	9.21667	-2820.66309	1078.93811	320.70956	-3042.08545	1041.60547	402.51697	-3134.70557	764.50519	443.79700	-3149.30200	722.60406	444.11166	0.00000	0.00000	0.00000	-3100.45020	699.70355	447.05740	-3172.68481	572.57965	441.38391	-3189.42603	574.07208	302.61237	-3109.56348	488.10825	439.02167	-3100.73193	445.09933	433.73413	-3168.23633	470.72455	427.83826	-3150.76172	430.61319	423.36142	-2987.07324	188.86867	378.83395	-3011.72876	185.18904	294.69946	-2915.04834	182.76292	317.96509	-3088.70605	79.17010	416.93161	-3141.75439	74.10586	358.26892	-3122.92212	69.75825	312.33240	-2817.30933	1068.02222	214.48016	0.00000	0.00000	0.00000	-2907.91040	736.53571	93.13208	-2912.67505	694.11951	94.68265	-2968.96753	736.80365	82.04060	-2965.67651	689.49402	87.86919	-2951.41748	554.80054	117.16955	-2969.73682	550.28680	231.39432	-2868.93042	350.25208	129.48753	-2871.19922	302.32474	137.30220	-2930.61157	342.73077	121.08875	-2920.66333	295.76224	125.73631	-2872.30786	107.95930	133.33333	0.00000	0.00000	0.00000	-2808.76270	66.73256	215.04375	-3033.47925	60.97301	237.93445	-3053.76367	82.38700	189.73015	-3017.69141	55.60840	120.17289
1108	9.22500	-2829.62012	1078.03760	320.80292	-3051.58154	1040.31494	402.03094	-3143.83643	764.14838	442.33734	-3160.59082	722.93988	443.20865	0.00000	0.00000	0.00000	-3111.63843	699.40784	446.32367	-3184.53198	573.53070	440.21414	-3202.94360	575.86029	301.29639	-3125.78052	486.00412	438.14453	-3119.55908	443.06018	433.27710	-3186.13159	474.17654	429.63538	-3169.67969	430.56390	422.41397	-3017.09595	181.50438	378.25436	-3042.11328	178.35826	294.44083	-2945.39746	171.66371	317.79343	-3124.66626	76.51528	415.96698	-3178.01807	73.92774	357.87726	-3159.15234	68.44570	311.91785	-2826.91699	1067.02686	214.74680	0.00000	0.00000	0.00000	-2911.93774	737.32520	92.46745	-2918.38379	694.44946	94.45433	-2973.03247	736.43115	81.67553	-2971.27075	689.09662	88.18110	-2954.41406	554.53613	117.38322	-2972.65991	549.90918	231.64081	-2871.38013	350.13016	129.58786	-2872.53271	302.59152	137.37888	-2930.01636	342.65634	120.76946	-2921.86475	295.71851	125.85515	-2872.65698	108.15156	133.42667	0.00000	0.00000	0.00000	-2808.99316	67.03590	215.07721	-3033.50391	60.66772	237.94032	-3053.91455	82.13243	189.76976	-3017.84277	55.55885	120.20876
1109	9.23333	-2839.99512	1076.82104	321.29453	-3060.30151	1038.60718	401.40335	-3155.69678	764.29034	441.75742	-3170.68457	722.74213	442.14886	-3101.37427	737.45886	446.64481	-3122.89331	698.69623	445.36169	-3195.97485	574.07465	439.02670	-3213.56665	576.91498	300.03928	-3141.59497	483.57965	437.22852	-3137.90308	440.65482	432.59741	-3202.74268	474.13062	428.59601	-3188.19434	430.43060	421.45554	-3048.90576	173.55687	378.52322	-3072.56860	171.61400	294.22305	-2979.89844	159.35422	317.99261	-3161.32104	74.60545	416.37222	-3214.35693	74.57095	357.45319	-3195.63135	68.05592	311.55527	-2836.48193	1065.96997	215.07208	0.00000	0.00000	0.00000	-2918.78931	737.47552	92.10465	-2922.40186	695.41949	93.88007	-2979.36035	735.88654	81.91325	-2976.91748	688.65625	88.54405	-2957.50488	554.27087	117.43762	-2975.36865	549.16199	232.19443	-2872.73511	350.43356	129.78299	-2873.64429	303.49573	137.48914	-2931.40625	342.62924	120.85114	-2921.04028	296.19913	125.92001	-2872.98901	108.36069	133.54684	0.00000	0.00000	0.00000	-2807.79224	67.85056	215.01218	0.00000	0.00000	0.00000	-3053.97998	81.83164	189.79393	-3017.97900	55.52513	120.23813
